<?xml version="1.0"?>
<svg xmlns="http://www.w3.org/2000/svg" id="Capa_1" enable-background="new 0 0 512 512" height="512px" viewBox="0 0 512 512" width="512px"><g><g><path d="m418.438 337.046c-16.087-9.326-26.938-26.722-26.938-46.617v-120.542c0-50.626-37.431-92.67-86.071-99.92v-20.538c-.001-27.255-22.174-49.429-49.429-49.429s-49.429 22.174-49.429 49.429v20.538c-48.64 7.25-86.071 49.294-86.071 99.92v120.542c0 19.895-10.851 37.292-26.938 46.617z" data-original="#000000" class="active-path" data-old_color="#000000" fill="#FFFFFF"/><path d="m51.643 367.046v76.097h154.928v19.429c0 27.254 22.174 49.428 49.429 49.428s49.429-22.174 49.429-49.429v-19.429h154.929v-76.097h-408.715z" data-original="#000000" class="active-path" data-old_color="#000000" fill="#FFFFFF"/></g></g> </svg>
